<?xml version="1.0" standalone="no"?><!DOCTYPE svg PUBLIC "-//W3C//DTD SVG 1.1//EN" "http://www.w3.org/Graphics/SVG/1.1/DTD/svg11.dtd"><svg t="1711810398059" class="icon" viewBox="0 0 1024 1024" version="1.1" xmlns="http://www.w3.org/2000/svg" p-id="8041" xmlns:xlink="http://www.w3.org/1999/xlink" width="48" height="48"><path d="M877.714286 0H146.285714c-20.228571 0-36.571429 16.342857-36.571428 36.571429v950.857142c0 20.228571 16.342857 36.571429 36.571428 36.571429h731.428572c20.228571 0 36.571429-16.342857 36.571428-36.571429V36.571429c0-20.228571-16.342857-36.571429-36.571428-36.571429z m-45.714286 941.714286H192V712h111.885714c13.257143 37.485714 36.571429 71.2 67.542857 96.8 39.428571 32.571429 89.371429 50.628571 140.571429 50.628571s101.142857-17.942857 140.571429-50.628571c30.971429-25.6 54.285714-59.314286 67.542857-96.8H832v-72H662.4l-5.942857 28.228571C642.742857 736.571429 581.942857 786.285714 512 786.285714s-130.742857-49.714286-144.571429-118.057143l-5.942857-28.228571H192V82.285714h640v859.428572zM292.571429 316.571429h438.857142c5.028571 0 9.142857-4.114286 9.142858-9.142858v-54.857142c0-5.028571-4.114286-9.142857-9.142858-9.142858H292.571429c-5.028571 0-9.142857 4.114286-9.142858 9.142858v54.857142c0 5.028571 4.114286 9.142857 9.142858 9.142858z m0 182.857142h438.857142c5.028571 0 9.142857-4.114286 9.142858-9.142857v-54.857143c0-5.028571-4.114286-9.142857-9.142858-9.142857H292.571429c-5.028571 0-9.142857 4.114286-9.142858 9.142857v54.857143c0 5.028571 4.114286 9.142857 9.142858 9.142857z" p-id="8042" fill="#056df9"></path></svg>