<?xml version="1.0" standalone="no"?><!DOCTYPE svg PUBLIC "-//W3C//DTD SVG 1.1//EN" "http://www.w3.org/Graphics/SVG/1.1/DTD/svg11.dtd"><svg t="1711810777206" class="icon" viewBox="0 0 1024 1024" version="1.1" xmlns="http://www.w3.org/2000/svg" p-id="28519" xmlns:xlink="http://www.w3.org/1999/xlink" width="48" height="48"><path d="M859.36 620.48l-328-445.84c-2.88-3.92-6.96-7.04-11.84-8.64a24.08 24.08 0 0 0-26.8 8.56l-328 445.84c-3.92 5.28-5.44 12-4.32 18.4 1.12 6.48 4.88 12.16 10.4 15.84l328 216.48c4 2.64 8.64 4 13.2 4 3.92 0 7.84-0.96 11.36-2.88 0.64-0.32 1.2-0.72 1.84-1.12v0.08l328-216.48c5.52-3.6 9.28-9.36 10.4-15.84 1.2-6.48-0.4-13.12-4.24-18.4zM488 806.56L218.32 628.56 488 262v544.56z m48 0V261.92l269.68 366.64L536 806.56z" fill="#056df9" p-id="28520"></path></svg>